<svg width="32" height="18" viewBox="0 0 32 18" fill="none" xmlns="http://www.w3.org/2000/svg">
<g id="Icon" clip-path="url(#clip0_1_263)">
<path id="Vector" d="M22.6878 13.6085C22.3479 13.6085 22.059 13.4895 21.8211 13.2515C21.5832 13.0135 21.4642 12.7274 21.4642 12.393C21.4642 12.0587 21.5832 11.7697 21.8211 11.526C22.059 11.2824 22.3451 11.1605 22.6793 11.1605C23.0135 11.1605 23.2996 11.2824 23.5375 11.526C23.7755 11.7697 23.8944 12.0587 23.8944 12.393C23.8944 12.7274 23.7755 13.0135 23.5375 13.2515C23.2996 13.4895 23.0164 13.6085 22.6878 13.6085ZM9.19417 13.6085C8.85427 13.6085 8.56537 13.4895 8.32744 13.2515C8.08952 13.0135 7.97056 12.7274 7.97056 12.393C7.97056 12.0587 8.08952 11.7697 8.32744 11.526C8.56537 11.2824 8.85144 11.1605 9.18567 11.1605C9.51989 11.1605 9.8088 11.2824 10.0524 11.526C10.296 11.7697 10.4178 12.0587 10.4178 12.393C10.4178 12.7274 10.296 13.0135 10.0524 13.2515C9.8088 13.4895 9.52273 13.6085 9.19417 13.6085ZM23.1127 6.24753L25.5599 2.03153C25.6279 1.90686 25.6449 1.77653 25.6109 1.64053C25.5769 1.50453 25.4976 1.40253 25.3729 1.33453C25.2483 1.26653 25.118 1.24953 24.9821 1.28353C24.8461 1.31753 24.7442 1.39686 24.6762 1.52153L22.212 5.80553C20.2633 4.91019 18.1729 4.46253 15.941 4.46253C13.709 4.46253 11.6187 4.91019 9.67001 5.80553L7.18881 1.52153C7.12083 1.39686 7.01887 1.31753 6.88291 1.28353C6.74695 1.24953 6.6195 1.26653 6.50053 1.33453C6.38157 1.40253 6.3051 1.50453 6.27111 1.64053C6.23712 1.77653 6.25411 1.90686 6.32209 2.03153L8.75231 6.24753C7.35876 7.00686 6.12382 7.97019 5.0475 9.13753C3.97118 10.3049 3.11579 11.6195 2.48133 13.0815C1.81288 14.5662 1.41068 16.1359 1.27472 17.7905H30.5903C30.4543 16.1359 30.0578 14.5662 29.4006 13.0815C28.7549 11.6195 27.8938 10.3049 26.8175 9.13753C25.7412 7.97019 24.5062 7.00686 23.1127 6.24753Z" fill="white"/>
</g>
<defs>
<clipPath id="clip0_1_263">
<rect width="31.01" height="17" fill="white" transform="matrix(1 0 0 -1 0.469971 17.9097)"/>
</clipPath>
</defs>
</svg>
