<svg width="20" height="25" viewBox="0 0 20 25" fill="none" xmlns="http://www.w3.org/2000/svg">
<g id="Icon" clip-path="url(#clip0_1_259)">
<path id="Vector" d="M11.038 2.94979C11.39 2.48579 11.798 2.09379 12.262 1.77379C12.63 1.51779 13.03 1.31779 13.462 1.17379C13.75 1.06179 14.046 0.981792 14.35 0.933792L14.71 0.909792L14.734 1.24579C14.75 1.51779 14.734 1.79779 14.686 2.08579C14.622 2.50179 14.502 2.90179 14.326 3.28579C14.134 3.76579 13.862 4.21379 13.51 4.62979C13.142 5.07779 12.734 5.43779 12.286 5.70979C11.918 5.93379 11.542 6.09379 11.158 6.18979C10.886 6.25379 10.614 6.28579 10.342 6.28579L10.03 6.26179L10.006 5.99779C9.98999 5.77379 9.99799 5.53379 10.03 5.27779C10.078 4.92579 10.166 4.57379 10.294 4.22179C10.47 3.77379 10.718 3.34979 11.038 2.94979ZM10.222 7.60579C10.366 7.60579 10.55 7.56579 10.774 7.48579C10.902 7.45379 11.126 7.37379 11.446 7.24579C12.006 7.02179 12.446 6.86179 12.766 6.76579C13.326 6.60579 13.862 6.52579 14.374 6.52579C14.982 6.52579 15.558 6.60579 16.102 6.76579C16.566 6.90979 16.998 7.10179 17.398 7.34179C17.718 7.54979 18.014 7.78179 18.286 8.03779C18.462 8.21379 18.622 8.40579 18.766 8.61379L18.934 8.85379L18.67 9.02179C18.462 9.16579 18.254 9.32579 18.046 9.50179C17.758 9.77379 17.51 10.0618 17.302 10.3658C17.03 10.7498 16.822 11.1658 16.678 11.6138C16.502 12.1418 16.414 12.6938 16.414 13.2698C16.414 13.9258 16.526 14.5418 16.75 15.1178C16.926 15.5978 17.182 16.0458 17.518 16.4618C17.79 16.7978 18.102 17.1018 18.454 17.3738C18.71 17.5658 18.966 17.7338 19.222 17.8778L19.558 18.0218L19.318 18.6698C19.094 19.1978 18.854 19.7018 18.598 20.1818C18.246 20.8858 17.878 21.5018 17.494 22.0298C17.03 22.6858 16.558 23.1898 16.078 23.5418C15.518 23.9738 14.958 24.1898 14.398 24.1898C14.094 24.1898 13.774 24.1418 13.438 24.0458C13.23 23.9978 12.922 23.8978 12.514 23.7458C12.106 23.5938 11.79 23.4858 11.566 23.4218C11.198 23.3258 10.854 23.2778 10.534 23.2778C10.182 23.2778 9.78199 23.3418 9.33399 23.4698C9.06199 23.5338 8.68599 23.6538 8.20599 23.8298C7.82199 23.9738 7.54999 24.0698 7.38999 24.1178C7.11799 24.1978 6.88599 24.2378 6.69399 24.2378C6.03799 24.2378 5.33399 23.9098 4.58199 23.2538C3.87799 22.6298 3.21799 21.7818 2.60199 20.7098C1.98599 19.6378 1.49399 18.5018 1.12599 17.3018C0.741988 16.0058 0.549988 14.7898 0.549988 13.6538C0.549988 12.1818 0.837988 10.8858 1.41399 9.76579C1.92599 8.74179 2.62199 7.94979 3.50199 7.38979C4.33399 6.84579 5.22199 6.57379 6.16599 6.57379C6.62999 6.57379 7.10999 6.64579 7.60599 6.78979C7.90999 6.86979 8.32599 7.01379 8.85399 7.22179C9.18999 7.34979 9.43799 7.43779 9.59799 7.48579C9.83799 7.56579 10.046 7.60579 10.222 7.60579Z" fill="white"/>
</g>
<defs>
<clipPath id="clip0_1_259">
<rect width="19.2" height="24" fill="white" transform="matrix(1 0 0 -1 0.549988 24.9097)"/>
</clipPath>
</defs>
</svg>
