<svg width="191" height="29" viewBox="0 0 191 29" fill="none" xmlns="http://www.w3.org/2000/svg">
<g id="62017fab386a9117726aad8f_image-1-logo-press-delivery-template.svg" clip-path="url(#clip0_1_164)">
<path id="Vector" d="M66.974 21.4068C65.4561 21.4068 64.1179 21.0772 62.9595 20.4181C61.8011 19.759 60.8823 18.8403 60.2032 17.6619C59.5441 16.4835 59.2146 15.1354 59.2146 13.6174C59.2146 12.0995 59.5441 10.7514 60.2032 9.573C60.8823 8.39461 61.8011 7.47586 62.9595 6.81676C64.1179 6.15766 65.4561 5.82812 66.974 5.82812C68.8714 5.82812 70.4692 6.32744 71.7674 7.32607C73.0656 8.30474 73.8945 9.66288 74.254 11.4005H70.2096C70.0098 10.6815 69.6104 10.1222 69.0112 9.72278C68.432 9.30336 67.7429 9.09365 66.944 9.09365C65.8855 9.09365 64.9867 9.4931 64.2477 10.292C63.5087 11.0909 63.1392 12.1994 63.1392 13.6174C63.1392 15.0355 63.5087 16.144 64.2477 16.9429C64.9867 17.7418 65.8855 18.1412 66.944 18.1412C67.7429 18.1412 68.432 17.9415 69.0112 17.5421C69.6104 17.1426 70.0098 16.5734 70.2096 15.8344H74.254C73.8945 17.5121 73.0656 18.8603 71.7674 19.8789C70.4692 20.8975 68.8714 21.4068 66.974 21.4068Z" fill="#121212"/>
<path id="Vector_2" d="M84.1887 21.4068C82.7507 21.4068 81.4524 21.0772 80.294 20.4181C79.1556 19.759 78.2468 18.8503 77.5678 17.6919C76.9087 16.5135 76.5791 15.1553 76.5791 13.6174C76.5791 12.0795 76.9187 10.7314 77.5977 9.573C78.2768 8.39461 79.1856 7.47586 80.324 6.81676C81.4824 6.15766 82.7806 5.82812 84.2187 5.82812C85.6367 5.82812 86.915 6.15766 88.0534 6.81676C89.2118 7.47586 90.1206 8.39461 90.7797 9.573C91.4588 10.7314 91.7983 12.0795 91.7983 13.6174C91.7983 15.1553 91.4588 16.5135 90.7797 17.6919C90.1206 18.8503 89.2118 19.759 88.0534 20.4181C86.895 21.0772 85.6068 21.4068 84.1887 21.4068ZM84.1887 18.0813C85.1873 18.0813 86.0561 17.7118 86.7951 16.9728C87.5341 16.2139 87.9036 15.0954 87.9036 13.6174C87.9036 12.1395 87.5341 11.031 86.7951 10.292C86.0561 9.53305 85.1973 9.15356 84.2187 9.15356C83.2001 9.15356 82.3213 9.53305 81.5823 10.292C80.8633 11.031 80.5037 12.1395 80.5037 13.6174C80.5037 15.0954 80.8633 16.2139 81.5823 16.9728C82.3213 17.7118 83.1901 18.0813 84.1887 18.0813Z" fill="#121212"/>
<path id="Vector_3" d="M94.6278 21.0473V6.18762H98.0131L98.3427 8.19488C98.822 7.47586 99.4512 6.90665 100.23 6.48722C101.029 6.04782 101.948 5.82812 102.986 5.82812C105.283 5.82812 106.911 6.71691 107.87 8.49448C108.409 7.6756 109.128 7.02647 110.027 6.54713C110.945 6.06779 111.944 5.82812 113.023 5.82812C114.96 5.82812 116.448 6.40732 117.486 7.56574C118.525 8.72415 119.044 10.4218 119.044 12.6587V21.0473H115.21V13.0183C115.21 11.74 114.96 10.7613 114.461 10.0823C113.981 9.40322 113.232 9.06369 112.214 9.06369C111.175 9.06369 110.336 9.44318 109.697 10.2021C109.078 10.9611 108.768 12.0196 108.768 13.3778V21.0473H104.934V13.0183C104.934 11.74 104.684 10.7613 104.185 10.0823C103.685 9.40322 102.916 9.06369 101.878 9.06369C100.859 9.06369 100.03 9.44318 99.3913 10.2021C98.7721 10.9611 98.4625 12.0196 98.4625 13.3778V21.0473H94.6278Z" fill="#121212"/>
<path id="Vector_4" d="M122.086 27.6382V6.18762H125.501L125.921 8.31471C126.4 7.65561 127.029 7.07642 127.808 6.5771C128.607 6.07778 129.636 5.82812 130.894 5.82812C132.292 5.82812 133.54 6.16765 134.639 6.84672C135.737 7.52579 136.606 8.45452 137.245 9.63291C137.884 10.8113 138.204 12.1494 138.204 13.6474C138.204 15.1453 137.884 16.4835 137.245 17.6619C136.606 18.8203 135.737 19.7391 134.639 20.4181C133.54 21.0772 132.292 21.4068 130.894 21.4068C129.775 21.4068 128.797 21.1971 127.958 20.7776C127.119 20.3582 126.44 19.769 125.921 19.0101V27.6382H122.086ZM130.085 18.0514C131.303 18.0514 132.312 17.6419 133.111 16.823C133.91 16.0042 134.309 14.9456 134.309 13.6474C134.309 12.3492 133.91 11.2806 133.111 10.4418C132.312 9.60295 131.303 9.18353 130.085 9.18353C128.847 9.18353 127.828 9.60295 127.029 10.4418C126.25 11.2607 125.861 12.3192 125.861 13.6174C125.861 14.9157 126.25 15.9842 127.029 16.823C127.828 17.6419 128.847 18.0514 130.085 18.0514Z" fill="#121212"/>
<path id="Vector_5" d="M146.153 21.4068C144.875 21.4068 143.826 21.2071 143.008 20.8076C142.189 20.3882 141.58 19.8389 141.18 19.1598C140.781 18.4808 140.581 17.7318 140.581 16.9129C140.581 15.5348 141.12 14.4163 142.199 13.5575C143.277 12.6987 144.895 12.2693 147.052 12.2693H150.827V11.9098C150.827 10.8912 150.537 10.1422 149.958 9.66288C149.379 9.18353 148.66 8.94386 147.801 8.94386C147.022 8.94386 146.343 9.13359 145.764 9.51307C145.185 9.87258 144.825 10.4118 144.685 11.1308H140.94C141.04 10.0523 141.4 9.11363 142.019 8.31471C142.658 7.5158 143.477 6.90665 144.476 6.48722C145.474 6.04782 146.593 5.82812 147.831 5.82812C149.948 5.82812 151.616 6.3574 152.834 7.41595C154.052 8.47449 154.662 9.97245 154.662 11.9098V21.0473H151.396L151.037 18.6505C150.597 19.4495 149.978 20.1086 149.179 20.6278C148.4 21.1471 147.392 21.4068 146.153 21.4068ZM147.022 18.4109C148.121 18.4109 148.969 18.0514 149.569 17.3324C150.188 16.6133 150.577 15.7246 150.737 14.666H147.471C146.453 14.666 145.724 14.8557 145.284 15.2352C144.845 15.5947 144.625 16.0441 144.625 16.5834C144.625 17.1626 144.845 17.612 145.284 17.9315C145.724 18.2511 146.303 18.4109 147.022 18.4109Z" fill="#121212"/>
<path id="Vector_6" d="M157.722 21.0473V6.18762H161.107L161.407 8.70418C161.866 7.82538 162.525 7.12634 163.384 6.60705C164.263 6.08776 165.292 5.82812 166.47 5.82812C168.307 5.82812 169.735 6.40732 170.754 7.56574C171.773 8.72415 172.282 10.4218 172.282 12.6587V21.0473H168.447V13.0183C168.447 11.74 168.188 10.7613 167.668 10.0823C167.149 9.40322 166.34 9.06369 165.242 9.06369C164.163 9.06369 163.274 9.44318 162.575 10.2021C161.896 10.9611 161.557 12.0196 161.557 13.3778V21.0473H157.722Z" fill="#121212"/>
<path id="Vector_7" d="M176.71 27.6381L180.155 20.0585H179.256L173.474 6.1875H177.639L181.803 16.6432L186.147 6.1875H190.221L180.784 27.6381H176.71Z" fill="#121212"/>
<path id="Vector_8" d="M15.0037 25.5597C14.2798 26.2837 13.1057 26.2827 12.383 25.5575L1.80469 14.9428C1.08376 14.2194 1.08476 13.0488 1.80693 12.3267L12.3853 1.74834C13.1075 1.02617 14.278 1.02516 15.0014 1.7461L25.6161 12.3244C26.3413 13.0471 26.3423 14.2211 25.6184 14.9451L15.0037 25.5597Z" fill="#FFCCC2"/>
<path id="Vector_9" d="M28.2394 25.5565C27.5167 26.2817 26.3427 26.2827 25.6188 25.5588L15.0041 14.9441C14.2801 14.2202 14.2812 13.0461 15.0063 12.3234L25.621 1.74512C26.3444 1.02419 27.515 1.02519 28.2371 1.74736L38.8155 12.3257C39.5377 13.0479 39.5387 14.2184 38.8177 14.9418L28.2394 25.5565Z" fill="#FFAA99"/>
<path id="Vector_10" d="M38.0495 25.5581C37.3262 26.2826 36.1524 26.2825 35.4291 25.5581L24.8308 14.9433C24.1083 14.2196 24.1093 13.0471 24.8331 12.3247L35.4313 1.74614C36.1541 1.02472 37.3245 1.02472 38.0473 1.74614L48.6455 12.3247C49.3693 13.0471 49.3703 14.2196 48.6478 14.9433L38.0495 25.5581Z" fill="#FF5634"/>
</g>
<defs>
<clipPath id="clip0_1_164">
<rect width="190" height="28" fill="white" transform="translate(0.5 0.44043)"/>
</clipPath>
</defs>
</svg>
