<svg width="219" height="171" viewBox="0 0 219 171" fill="none" xmlns="http://www.w3.org/2000/svg">
<g id="62017b070212f9403ca3a97f_image-1-partners-delivery-template.svg">
<path id="Vector" d="M128.88 118.343C128.88 118.343 124.909 134.225 109.028 134.225C93.1456 134.225 89.1752 118.343 89.1752 118.343C89.1752 118.343 51.4243 125.158 46.1171 161.259C45.4171 166.02 49.401 169.959 54.2132 169.959H163.842C168.654 169.959 172.638 166.019 171.934 161.259C166.611 125.289 128.88 118.343 128.88 118.343Z" fill="#FF5634"/>
<path id="Vector_2" d="M109.028 142.165C89.1753 142.165 89.1753 118.342 89.1753 118.342V94.5195H128.88V118.342C128.88 118.342 128.88 142.165 109.028 142.165Z" fill="#F9CFB7"/>
<path id="Vector_3" d="M152.703 70.6973C152.703 75.0846 149.149 78.6382 144.762 78.6382C140.375 78.6382 136.821 75.0846 136.821 70.6973C136.821 66.3099 140.375 62.7563 144.762 62.7563C149.149 62.7563 152.703 66.3099 152.703 70.6973ZM81.2344 70.6973C81.2344 75.0846 77.6808 78.6382 73.2935 78.6382C68.9061 78.6382 65.3525 75.0846 65.3525 70.6973C65.3525 66.3099 68.9061 62.7563 73.2935 62.7563C77.6808 62.7563 81.2344 66.3099 81.2344 70.6973Z" fill="#F9CFB7"/>
<path id="Vector_4" d="M144.762 46.8744C144.762 16.5598 73.2935 27.1372 73.2935 46.8744V74.6677C73.2935 94.4049 89.2905 110.402 109.028 110.402C128.765 110.402 144.762 94.4049 144.762 74.6677V46.8744Z" fill="#FFE3D3"/>
<path id="Vector_5" d="M109.028 11.1401C84.9071 11.1401 69.323 30.6947 69.323 54.8153V63.8838L71.8688 66.0681C73.988 67.8864 77.2639 66.3807 77.2639 63.5884V55.5549C77.2639 52.7421 79.0638 50.2448 81.7323 49.3553L119.801 36.6658C122.932 35.6222 126.384 36.4371 128.717 38.7707L138.239 48.2928C139.873 49.9268 140.791 52.143 140.791 54.4539V61.1287C140.791 64.8665 145.189 66.8688 148.009 64.4147L148.732 63.7846V54.8153C148.732 38.8341 144.611 22.992 124.91 19.081L123.347 15.9566C121.871 13.0048 118.854 11.1401 115.554 11.1401H109.028Z" fill="#3F3F3F"/>
<path id="Vector_6" d="M109.028 142.165C128.88 142.165 135.808 126.562 136.626 120.614C132.032 118.93 128.88 118.343 128.88 118.343C128.88 118.343 124.909 134.225 109.028 134.225C93.1456 134.225 89.1752 118.343 89.1752 118.343C89.1752 118.343 86.0226 118.922 81.4248 120.59C82.2348 126.526 89.1752 142.165 109.028 142.165Z" fill="#FF917B"/>
</g>
</svg>
