<svg width="219" height="171" viewBox="0 0 219 171" fill="none" xmlns="http://www.w3.org/2000/svg">
<g id="62017b075b917b7d28e88cc8_image-3-partners-delivery-template.svg" clip-path="url(#clip0_1_135)">
<g id="Clip path group">
<mask id="mask0_1_135" style="mask-type:luminance" maskUnits="userSpaceOnUse" x="0" y="0" width="219" height="171">
<g id="a">
<path id="Vector" d="M218.48 0.140137H0.47998V170.14H218.48V0.140137Z" fill="white"/>
</g>
</mask>
<g mask="url(#mask0_1_135)">
<g id="Group">
<path id="Vector_2" d="M162.051 127.31C150.05 127.31 140.62 136.74 140.62 148.742C140.62 160.744 150.05 170.174 162.051 170.174C174.053 170.174 183.483 160.744 183.483 148.742C183.483 136.74 174.053 127.31 162.051 127.31ZM162.051 161.601C154.765 161.601 149.192 156.029 149.192 148.742C149.192 141.455 154.765 135.883 162.051 135.883C169.338 135.883 174.91 141.455 174.91 148.742C174.91 156.029 169.338 161.601 162.051 161.601Z" fill="#3F3F3F"/>
<path id="Vector_3" d="M64.0342 127.31C52.0325 127.31 42.6026 136.74 42.6026 148.742C42.6026 160.744 52.0325 170.174 64.0342 170.174C76.0359 170.174 85.4658 160.744 85.4658 148.742C85.4658 136.74 76.0359 127.31 64.0342 127.31ZM64.0342 161.601C56.7474 161.601 51.1752 156.029 51.1752 148.742C51.1752 141.455 56.7474 135.883 64.0342 135.883C71.3209 135.883 76.8931 141.455 76.8931 148.742C76.8931 156.029 71.3209 161.601 64.0342 161.601Z" fill="#3F3F3F"/>
<path id="Vector_4" d="M159.447 148.475C158.096 148.475 157.083 147.8 156.408 146.449L142.898 119.429C142.222 117.74 142.898 115.713 144.249 115.038C145.937 114.362 147.964 115.038 148.639 116.389L162.149 143.409C162.825 145.098 162.149 147.124 160.798 147.8C160.461 148.475 160.123 148.475 159.447 148.475ZM64.8774 148.475C64.2019 148.475 63.8642 148.475 63.1887 148.137C61.4999 147.124 61.1622 145.098 61.8377 143.409L75.3477 119.766C76.3609 118.078 78.3874 117.74 80.0762 118.415C81.7649 119.429 82.1026 121.455 81.4272 123.144L67.9172 146.786C67.2417 147.8 65.8907 148.475 64.8774 148.475Z" fill="#929292"/>
<path id="Vector_5" d="M88.52 145.097H135.805C135.805 128.547 147.964 122.13 158.434 120.779C163.163 120.441 162.825 114.7 162.825 114.7C159.447 97.8124 145.937 84.3024 135.805 77.5474L125.672 80.9249L132.427 104.567C132.427 104.567 135.805 131.587 112.163 131.587H88.52V145.097Z" fill="#FF5634"/>
<path id="Vector_6" d="M64.8774 118.078C85.1424 118.078 91.8974 134.965 91.8974 134.965L98.6524 131.588C95.2749 121.455 88.5199 118.078 88.5199 118.078L91.8974 101.19H37.8574C37.8574 101.19 38.5329 108.283 44.6124 111.323C51.3674 114.7 64.8774 118.078 64.8774 118.078ZM125.672 80.9252C125.672 80.9252 122.295 70.7927 122.295 64.0377C122.295 57.2827 129.05 57.2827 129.05 57.2827H139.182V70.7927H132.427C132.427 70.7927 149.315 87.6801 156.07 97.8126L125.672 80.9252Z" fill="#FF5634"/>
<path id="Vector_7" d="M156.07 97.8126V118.078H165.527C166.202 116.389 166.202 119.091 166.202 119.091C164.514 110.985 160.798 103.892 156.07 97.8126ZM139.182 57.2827V70.7927C142.898 70.7927 145.937 67.7529 145.937 64.0377C145.937 60.3224 142.898 57.2827 139.182 57.2827Z" fill="#FF5634"/>
<path id="Vector_8" d="M136.029 141.73C135.779 143.578 134.293 145.097 132.427 145.097C130.562 145.097 129.031 143.581 129.227 141.726C129.951 134.861 132.891 128.421 137.831 123.482C148.855 112.458 166.34 111.714 178.236 121.25C179.677 122.405 179.667 124.54 178.361 125.846C177.056 127.152 174.95 127.128 173.469 126.024C164.262 119.161 150.88 119.889 142.56 128.21C138.952 132.095 136.713 136.664 136.029 141.73ZM95.0978 141.726C95.2939 143.581 93.7627 145.097 91.8973 145.097C90.032 145.097 88.546 143.578 88.2958 141.73C87.6113 136.674 85.3719 132.155 81.7648 128.548C73.4442 120.227 60.0623 119.498 50.8551 126.362C49.3746 127.465 47.2691 127.489 45.9634 126.184C44.6577 124.878 44.648 122.743 46.0887 121.588C57.9843 112.052 75.4697 112.796 86.4933 123.819C91.433 128.468 94.3729 134.867 95.0978 141.726Z" fill="#E13F1F"/>
<path id="Vector_9" d="M95.2749 99.5013C95.2749 100.892 94.3388 102.102 92.982 102.408C88.0937 103.513 76.2219 105.918 65.553 105.918C54.2613 105.918 40.724 102.774 36.1111 101.614C35.1438 101.37 34.48 100.499 34.48 99.5013C34.48 94.7728 39.884 91.0576 44.6125 91.0576H85.8179C90.5464 91.0576 95.2749 94.7728 95.2749 99.5013Z" fill="#E13F1F"/>
<path id="Vector_10" d="M91.8974 37.0174C97.4934 37.0174 102.03 32.4809 102.03 26.8849C102.03 21.2889 97.4934 16.7524 91.8974 16.7524C86.3014 16.7524 81.7649 21.2889 81.7649 26.8849C81.7649 32.4809 86.3014 37.0174 91.8974 37.0174Z" fill="#FFE3D3"/>
<path id="Vector_11" d="M118.917 89.6056V124.833C118.917 128.548 115.878 131.588 112.162 131.588C110.305 131.588 108.616 130.845 107.4 129.595C106.15 128.379 105.407 126.69 105.407 124.833V97.8129H78.3874C77.239 97.644 74.1993 97.0023 71.6324 94.4354C67.6131 90.3824 68.1535 84.9109 68.2549 84.1678V51.8114C69.3694 45.563 74.7397 40.8345 80.9205 40.4292C87.7768 39.9564 94.2616 44.82 95.545 51.8114V82.2089H111.318C115.54 82.2089 118.917 85.5188 118.917 89.6056Z" fill="#607D89"/>
<path id="Vector_12" d="M129.607 66.1185L114.983 74.5622C113.368 75.4944 111.301 74.9405 110.369 73.326C109.437 71.7116 109.991 69.6446 111.605 68.7124L126.23 60.2686C127.844 59.3364 129.911 59.8904 130.843 61.5048C131.776 63.1192 131.222 65.1863 129.607 66.1185Z" fill="#37474F"/>
<path id="Vector_13" d="M107.13 73.4269L95.5452 75.9938V80.4859C91.5597 81.364 87.5743 82.2421 83.5888 83.1541C80.6842 83.7958 77.8133 82.0057 77.104 79.1348C74.8411 71.8732 72.612 64.6454 70.3828 57.4176C73.4901 55.999 76.5637 54.6142 79.6709 53.2295H79.7047C83.1498 56.6407 86.6286 60.052 90.0736 63.497C91.8975 63.058 93.7213 62.6189 95.5452 62.2136V65.3209C97.7743 64.848 100.071 64.3414 102.3 63.8686C102.334 63.8348 102.368 63.8348 102.435 63.8348C102.705 63.7672 102.976 63.7335 103.246 63.6659C104.529 66.9083 105.847 70.1845 107.13 73.4269Z" fill="#37474F"/>
<path id="Vector_14" d="M114.527 71.6369C114.155 71.8395 113.75 71.9746 113.311 72.076L107.13 73.427L95.5452 75.9939L84.8386 78.3581C83.0485 78.7634 81.2247 78.223 79.975 76.9733L70.3829 57.4176L69.3696 55.3574L78.1174 51.0679C78.6578 51.7772 79.1644 52.5203 79.671 53.2295H79.7048C82.9472 57.6878 86.1558 62.1461 89.3982 66.672C91.4247 66.2329 93.485 65.76 95.5452 65.321C97.7744 64.8481 100.071 64.3415 102.3 63.8686C102.334 63.8349 102.368 63.8349 102.435 63.8349C102.706 63.7673 102.976 63.7335 103.246 63.666C103.415 63.6322 103.584 63.5984 103.786 63.5647C106.252 62.9905 108.751 62.4839 111.217 61.9435C113.615 61.4031 115.912 62.5176 116.959 64.5441C117.094 64.8143 117.195 65.0508 117.296 65.3547C117.33 65.4561 117.364 65.5236 117.364 65.6587C117.398 65.7263 117.398 65.7938 117.431 65.8614C117.938 68.1918 116.722 70.5899 114.527 71.6369Z" fill="#607D89"/>
<path id="Vector_15" d="M101.213 20.9475C99.9022 23.6495 93.7484 21.1232 91.4551 24.1055C89.155 27.1013 93.2114 32.4243 90.8134 34.5149C90.0906 35.1432 88.7598 35.16 86.095 35.1871C83.7375 35.2107 82.3291 35.2276 80.9443 34.6399C77.2291 33.066 76.1618 28.2092 75.9321 27.179C75.1587 23.6631 75.7092 19.0528 78.8266 15.4929C83.8084 9.8052 91.4247 11.2643 92.188 11.423C93.1708 11.629 97.2644 12.4869 99.7367 16.0671C100.446 17.0871 101.996 19.3297 101.213 20.9475Z" fill="#FF5634"/>
</g>
</g>
</g>
</g>
<defs>
<clipPath id="clip0_1_135">
<rect width="218" height="170" fill="white" transform="translate(0.47998 0.140137)"/>
</clipPath>
</defs>
</svg>
