<svg width="162" height="48" viewBox="0 0 162 48" fill="none" xmlns="http://www.w3.org/2000/svg">
<g id="6216c3e8db8e185b2e172d35_logo-deliver-template.svg" clip-path="url(#clip0_1_383)">
<path id="Vector" d="M28.9634 9.65134C28.9634 8.3839 28.7138 7.12887 28.2288 5.95791C27.7437 4.78695 27.0328 3.72298 26.1366 2.82677C25.2404 1.93055 24.1764 1.21964 23.0055 0.734608C21.8345 0.24958 20.5795 -6.10906e-05 19.312 -6.10352e-05C18.0446 -6.09798e-05 16.7896 0.24958 15.6186 0.734608C14.4477 1.21964 13.3837 1.93055 12.4875 2.82677C11.5913 3.72298 10.8803 4.78695 10.3953 5.95791C9.9103 7.12887 9.66064 8.3839 9.66064 9.65134H13.5141C13.5141 8.88995 13.6641 8.13601 13.9555 7.43258C14.2469 6.72914 14.6739 6.08999 15.2123 5.5516C15.7507 5.01322 16.3898 4.58615 17.0933 4.29478C17.7967 4.0034 18.5507 3.85344 19.312 3.85344C20.0734 3.85344 20.8274 4.0034 21.5308 4.29477C22.2342 4.58615 22.8734 5.01322 23.4118 5.5516C23.9502 6.08999 24.3772 6.72914 24.6686 7.43258C24.96 8.13601 25.1099 8.88995 25.1099 9.65134H28.9634Z" fill="#121212"/>
<path id="Vector_2" d="M32.2351 9.16064H6.71615C3.28306 9.16064 0.5 11.9437 0.5 15.3768V40.8958C0.5 44.3289 3.28306 47.1119 6.71615 47.1119H32.2351C35.6682 47.1119 38.4513 44.3289 38.4513 40.8958V15.3768C38.4513 11.9437 35.6682 9.16064 32.2351 9.16064Z" fill="#FF5634"/>
<path id="Vector_3" d="M32.0715 27.9727C32.0715 29.6268 31.7457 31.2648 31.1127 32.793C30.4797 34.3212 29.5519 35.7097 28.3823 36.8794C27.2126 38.049 25.8241 38.9768 24.2959 39.6098C22.7677 40.2428 21.1297 40.5686 19.4756 40.5686C17.8215 40.5686 16.1836 40.2428 14.6554 39.6098C13.1272 38.9768 11.7386 38.049 10.569 36.8794C9.39937 35.7097 8.47157 34.3212 7.83857 32.793C7.20556 31.2648 6.87976 29.6268 6.87976 27.9727H11.9089C11.9089 28.9664 12.1046 29.9504 12.4849 30.8684C12.8651 31.7864 13.4225 32.6206 14.1251 33.3232C14.8278 34.0259 15.6619 34.5832 16.58 34.9635C17.498 35.3438 18.4819 35.5395 19.4756 35.5395C20.4693 35.5395 21.4533 35.3438 22.3713 34.9635C23.2893 34.5832 24.1235 34.0259 24.8261 33.3232C25.5288 32.6206 26.0861 31.7864 26.4664 30.8684C26.8467 29.9504 27.0424 28.9664 27.0424 27.9727H32.0715Z" fill="white"/>
<path id="Vector_4" d="M48.3853 34.1104H54.7081C60.6453 34.1104 64.8605 30.4349 64.8605 25.2687C64.8605 20.1025 60.6453 16.4528 54.7081 16.4528H48.3853V34.1104ZM52.1635 30.6662V19.8969H55.1964C58.5634 19.8969 60.9538 22.133 60.9538 25.2687C60.9538 28.4301 58.5634 30.6662 55.1964 30.6662H52.1635ZM73.9526 31.1032C72.3847 31.1032 71.2281 30.1265 70.7912 28.6871H80.3782C80.3782 23.6752 77.9364 20.5138 73.7726 20.5138C69.8916 20.5138 66.9358 23.4181 66.9358 27.4277C66.9358 31.5144 70.0201 34.4188 73.9783 34.4188C75.9316 34.4188 78.2192 33.5963 79.4015 32.3626L77.0111 29.9209C76.2915 30.6148 75.0064 31.1032 73.9526 31.1032ZM73.9269 23.8294C75.4433 23.8294 76.42 24.6776 76.7798 25.9884H70.8426C71.3309 24.6519 72.5132 23.8294 73.9269 23.8294ZM82.9169 34.1104H86.6694V16.1443H82.9169V34.1104ZM91.8212 18.9973C92.9264 18.9973 93.826 18.072 93.826 16.9411C93.826 15.8873 92.9264 14.9363 91.8212 14.9363C90.6646 14.9363 89.765 15.8873 89.765 16.9411C89.765 18.072 90.6646 18.9973 91.8212 18.9973ZM89.9192 34.1104H93.6718V20.8222H89.9192V34.1104ZM101.394 34.1104H104.864L110.544 20.8222H106.638L103.142 29.7923L99.5695 20.8222H95.637L101.394 34.1104ZM117.978 31.1032C116.41 31.1032 115.254 30.1265 114.817 28.6871H124.404C124.404 23.6752 121.962 20.5138 117.798 20.5138C113.917 20.5138 110.961 23.4181 110.961 27.4277C110.961 31.5144 114.046 34.4188 118.004 34.4188C119.957 34.4188 122.245 33.5963 123.427 32.3626L121.037 29.9209C120.317 30.6148 119.032 31.1032 117.978 31.1032ZM117.952 23.8294C119.469 23.8294 120.445 24.6776 120.805 25.9884H114.868C115.356 24.6519 116.539 23.8294 117.952 23.8294ZM130.695 23.2896V20.8222H126.942V34.1104H130.695V27.7618C130.695 25.2687 132.468 23.6752 135.244 23.6752V20.5138C133.214 20.5138 131.569 21.5676 130.695 23.2896ZM160.78 16.4528H156.359L152.118 22.2358L147.878 16.4528H143.405L149.857 25.3201L143.405 34.1104H147.8L152.067 28.3273L156.282 34.1104H160.78L154.303 25.243L160.78 16.4528Z" fill="#121212"/>
</g>
<defs>
<clipPath id="clip0_1_383">
<rect width="161" height="48" fill="white" transform="translate(0.5)"/>
</clipPath>
</defs>
</svg>
