<svg width="256" height="256" viewBox="0 0 256 256" fill="none" xmlns="http://www.w3.org/2000/svg">
<rect width="256" height="256" rx="48" fill="#FFF5F1"/>
<path d="M162.917 77.2361C162.917 72.6088 162.005 68.0268 160.234 63.7518C158.464 59.4767 155.868 55.5923 152.596 52.3204C149.324 49.0484 145.44 46.4529 141.165 44.6821C136.89 42.9114 132.308 41.9999 127.68 41.9999C123.053 41.9999 118.471 42.9114 114.196 44.6821C109.921 46.4529 106.037 49.0484 102.765 52.3204C99.4928 55.5923 96.8973 59.4767 95.1265 63.7518C93.3557 68.0268 92.4443 72.6088 92.4443 77.2361L106.513 77.2361C106.513 74.4563 107.061 71.7038 108.124 69.1356C109.188 66.5675 110.747 64.234 112.713 62.2684C114.678 60.3028 117.012 58.7436 119.58 57.6799C122.148 56.6161 124.901 56.0686 127.68 56.0686C130.46 56.0686 133.213 56.6161 135.781 57.6799C138.349 58.7436 140.683 60.3028 142.648 62.2684C144.614 64.234 146.173 66.5675 147.237 69.1356C148.3 71.7038 148.848 74.4563 148.848 77.2361H162.917Z" fill="#121212"/>
<rect x="59" y="75.4445" width="138.556" height="138.556" rx="22.6944" fill="#FF5634"/>
<path d="M174.264 144.125C174.264 150.164 173.075 156.144 170.764 161.723C168.453 167.302 165.065 172.372 160.795 176.642C156.525 180.912 151.456 184.3 145.876 186.611C140.297 188.922 134.317 190.111 128.278 190.111C122.239 190.111 116.259 188.922 110.68 186.611C105.101 184.3 100.031 180.912 95.761 176.642C91.4908 172.372 88.1035 167.302 85.7925 161.723C83.4815 156.144 82.292 150.164 82.292 144.125L100.653 144.125C100.653 147.753 101.367 151.345 102.756 154.697C104.144 158.048 106.179 161.094 108.744 163.659C111.309 166.224 114.355 168.259 117.706 169.647C121.058 171.036 124.65 171.75 128.278 171.75C131.906 171.75 135.498 171.036 138.85 169.647C142.202 168.259 145.247 166.224 147.812 163.659C150.377 161.094 152.412 158.048 153.801 154.697C155.189 151.345 155.903 147.753 155.903 144.125H174.264Z" fill="white"/>
</svg>
