<svg width="19" height="19" viewBox="0 0 19 19" fill="none" xmlns="http://www.w3.org/2000/svg">
<g id="Icon">
<path id="Vector" d="M3.76 15.2104C3.592 15.2104 3.46 15.1684 3.364 15.0844C3.244 15.0124 3.154 14.9074 3.094 14.7694C3.034 14.6314 3.019 14.4904 3.049 14.3464C3.079 14.2024 3.148 14.0824 3.256 13.9864L14.776 2.46645C14.824 2.40645 14.905 2.35245 15.019 2.30445C15.133 2.25645 15.22 2.23245 15.28 2.23245C15.388 2.23245 15.484 2.25045 15.568 2.28645C15.652 2.32245 15.73 2.37645 15.802 2.44845C15.874 2.52045 15.928 2.59845 15.964 2.68245C16 2.76645 16.018 2.86245 16.018 2.97045C15.994 3.09045 15.97 3.18045 15.946 3.24045C15.898 3.34845 15.844 3.42645 15.784 3.47445L4.264 14.9944C4.144 15.1384 3.976 15.2104 3.76 15.2104ZM15.28 14.5444C15.076 14.5444 14.905 14.4754 14.767 14.3374C14.629 14.1994 14.56 14.0284 14.56 13.8244V3.69045H4.426C4.222 3.69045 4.051 3.62145 3.913 3.48345C3.775 3.34545 3.706 3.17445 3.706 2.97045C3.706 2.76645 3.775 2.59545 3.913 2.45745C4.051 2.31945 4.222 2.25045 4.426 2.25045H15.28C15.496 2.25045 15.67 2.31645 15.802 2.44845C15.934 2.58045 16 2.75445 16 2.97045V13.8244C16 14.0284 15.931 14.1994 15.793 14.3374C15.655 14.4754 15.484 14.5444 15.28 14.5444Z" fill="#FF5634"/>
</g>
</svg>
