<svg width="79" height="79" viewBox="0 0 79 79" fill="none" xmlns="http://www.w3.org/2000/svg">
<g id="61fdd35b08dbc7d63e9b3811_icon-3-service-available-delivery-template.svg" clip-path="url(#clip0_1_340)">
<path id="Vector" d="M78.58 0.719727H0.580017V78.7197H78.58V0.719727Z" fill="#F1F1F1"/>
<path id="Vector_2" d="M17.5411 55.3789C30.3074 51.4038 33.2398 28.7013 33.2398 28.7013L34.5041 28.7002C34.5041 28.7002 34.9402 46.0994 27.9806 55.3789H17.5411Z" fill="#E8AD8C"/>
<path id="Vector_3" d="M33.7802 28.8972L45.3797 17.2978C44.751 17.1678 44.0991 17.1006 43.4321 17.1006C38.101 17.1006 33.7802 21.4214 33.7802 26.7525V28.8972Z" fill="#4CAF50"/>
<path id="Vector_4" d="M33.7802 28.7003H52.308C50.1911 25.8874 46.8354 24.0605 43.0447 24.0605C39.254 24.0605 35.8971 25.8874 33.7802 28.7003Z" fill="#4CAF50"/>
<path id="Vector_5" d="M35.7498 28.7002H33.5923L46.3517 41.4596C46.47 40.8204 46.5396 40.1639 46.5396 39.49C46.5396 33.5302 41.7085 28.7002 35.7498 28.7002Z" fill="#4CAF50"/>
<path id="Vector_6" d="M33.7803 28.8972L22.1808 17.2978C22.8095 17.1678 23.4614 17.1006 24.1284 17.1006C29.4595 17.1006 33.7803 21.4214 33.7803 26.7525V28.8972Z" fill="#4CAF50"/>
<path id="Vector_7" d="M33.7803 28.7003H15.2525C17.3694 25.8874 20.7251 24.0605 24.5158 24.0605C28.3065 24.0605 31.6634 25.8874 33.7803 28.7003Z" fill="#4CAF50"/>
<path id="Vector_8" d="M31.8106 28.7002H33.9681L21.2087 41.4596C21.0904 40.8204 21.0208 40.1639 21.0208 39.49C21.0208 33.5302 25.852 28.7002 31.8106 28.7002Z" fill="#4CAF50"/>
<path id="Vector_9" d="M37.6069 53.8624L53.4993 62.3381H17.541C16.2593 62.3381 15.2211 61.3 15.2211 60.0182V53.0586H34.3915C35.5132 53.0586 36.6175 53.3346 37.6069 53.8624Z" fill="#FDB52A"/>
<path id="Vector_10" d="M60.4591 54.2185C58.537 54.2185 56.9792 53.0586 56.9792 53.0586C56.9792 53.0586 55.4214 54.2185 53.4994 54.2185C51.5773 54.2185 50.0195 53.0586 50.0195 53.0586C50.0195 53.0586 48.4617 54.2185 46.5397 54.2185C44.6177 54.2185 43.0599 53.0586 43.0599 53.0586C43.0599 53.0586 41.5021 54.2185 39.58 54.2185C38.7611 54.2185 38.0176 54.0062 37.4225 53.7638L53.4994 62.3381H61.619C62.9007 62.3381 63.9389 61.3 63.9389 60.0182V53.0586C63.9389 53.0586 62.3811 54.2185 60.4591 54.2185Z" fill="#2AA4F4"/>
</g>
<defs>
<clipPath id="clip0_1_340">
<rect width="78" height="78" fill="white" transform="translate(0.580017 0.719727)"/>
</clipPath>
</defs>
</svg>
