<svg width="79" height="79" viewBox="0 0 79 79" fill="none" xmlns="http://www.w3.org/2000/svg">
<g id="61fdd35beba818a369a8fd1e_icon-2-service-available-delivery-template.svg" clip-path="url(#clip0_1_322)">
<path id="Vector" d="M78.97 0.219727H0.970032V78.2197H78.97V0.219727Z" fill="#F1F1F1"/>
<path id="Vector_2" d="M53.5539 43.9463H25.011L18.6009 64.037H59.9641L53.5539 43.9463Z" fill="#FF5634"/>
<path id="Vector_3" d="M41.9238 27.4015L39.9857 13.8296C39.8698 13.0165 38.6963 13.0165 38.5793 13.8296L36.6411 27.4015H41.9238Z" fill="#929292"/>
<path id="Vector_4" d="M49.7096 30.1013L55.7486 17.7939C56.1102 17.0565 55.14 16.3959 54.5869 17.0022L45.3428 27.1267L49.7096 30.1013Z" fill="#929292"/>
<path id="Vector_5" d="M51.8745 37.6243L63.1892 29.8823C63.8663 29.4191 63.3475 28.3661 62.5675 28.6213L49.5381 32.8853L51.8745 37.6243Z" fill="#929292"/>
<path id="Vector_6" d="M50.2791 44.9326L63.9431 43.8146C64.7621 43.7472 64.8318 42.5761 64.0282 42.4118L50.5982 39.6582L50.2791 44.9326Z" fill="#929292"/>
<path id="Vector_7" d="M33.2221 27.1267L23.978 17.0022C23.4249 16.3959 22.4547 17.0565 22.8163 17.7939L28.8553 30.1013L33.2221 27.1267Z" fill="#929292"/>
<path id="Vector_8" d="M29.0267 32.8866L15.9973 28.6213C15.2173 28.3661 14.6973 29.4191 15.3757 29.8823L26.6903 37.6243L29.0267 32.8866Z" fill="#929292"/>
<path id="Vector_9" d="M27.9678 39.6582L14.5378 42.4118C13.733 42.5772 13.8039 43.7484 14.6229 43.8146L28.2869 44.9326L27.9678 39.6582Z" fill="#929292"/>
<path id="Vector_10" d="M46.4714 56.9473H39.2825H32.0935C32.0935 56.9473 20.9645 56.9473 16.8282 65.22H39.2825H61.7368C57.6005 56.9473 46.4714 56.9473 46.4714 56.9473Z" fill="#CACACA"/>
<path id="Vector_11" d="M39.2824 23.8564C30.673 23.8564 25.1007 28.0837 25.1007 37.0253C25.1007 52.8461 39.2824 54.5834 39.2824 54.5834C39.2824 54.5834 53.4641 52.8461 53.4641 37.0253C53.4641 28.0837 47.8919 23.8564 39.2824 23.8564Z" fill="#CACACA"/>
<path id="Vector_12" d="M39.2824 28.583C29.5396 28.583 27.4644 34.6634 27.4644 40.3939C27.4644 48.2116 31.6941 52.2191 31.6941 52.2191H46.8696C46.8696 52.2191 51.0993 48.2116 51.0993 40.3939C51.1005 34.6634 49.0252 28.583 39.2824 28.583Z" fill="#929292"/>
<path id="Vector_13" d="M46.3733 50.7666H32.1917V58.6008C32.1917 58.6008 32.1917 62.8553 39.2825 62.8553C46.3733 62.8553 46.3733 58.6008 46.3733 58.6008V50.7666Z" fill="#929292"/>
<path id="Vector_14" d="M48.7368 41.8778C48.7368 34.709 44.4977 32.1279 39.2824 32.1279C34.067 32.1279 29.8279 34.709 29.8279 41.8778C29.8279 42.4368 29.8279 44.5688 29.8279 45.1278C29.8279 52.2942 34.067 58.1276 39.2824 58.1276C44.4977 58.1276 48.7368 52.2942 48.7368 45.1278C48.7368 44.5688 48.7368 42.4368 48.7368 41.8778Z" fill="#CACACA"/>
</g>
<defs>
<clipPath id="clip0_1_322">
<rect width="78" height="78" fill="white" transform="translate(0.970032 0.219727)"/>
</clipPath>
</defs>
</svg>
