<svg width="219" height="171" viewBox="0 0 219 171" fill="none" xmlns="http://www.w3.org/2000/svg">
<g id="62017b07238dadda77c03341_image-2-partners-delivery-template.svg" clip-path="url(#clip0_1_110)">
<g id="Clip path group">
<mask id="mask0_1_110" style="mask-type:luminance" maskUnits="userSpaceOnUse" x="0" y="0" width="219" height="171">
<g id="a">
<path id="Vector" d="M218.48 0.140137H0.47998V170.14H218.48V0.140137Z" fill="white"/>
</g>
</mask>
<g mask="url(#mask0_1_110)">
<g id="Group">
<path id="Vector_2" d="M14.2337 51.4141H204.373V162.891C204.373 166.956 201.078 170.251 197.013 170.251H21.5934C17.5287 170.251 14.2337 166.956 14.2337 162.891V51.4141Z" fill="#CFD8DC"/>
<path id="Vector_3" d="M14.2337 155.992H204.373V163.015C204.373 167.012 201.133 170.252 197.136 170.252H21.4702C17.4736 170.252 14.2337 167.012 14.2337 163.015V155.992Z" fill="#B0BEC5"/>
<path id="Vector_4" d="M133.071 88.3689C133.071 86.3366 134.718 84.689 136.75 84.689H186.432C188.465 84.689 190.112 86.3366 190.112 88.3689V170.251H133.071V88.3689Z" fill="#656565"/>
<path id="Vector_5" d="M28.4939 88.3689C28.4939 86.3366 30.1415 84.689 32.1738 84.689H115.13C117.162 84.689 118.81 86.3366 118.81 88.3689V142.804C118.81 144.836 117.162 146.484 115.13 146.484H32.1738C30.1415 146.484 28.4939 144.836 28.4939 142.804V88.3689Z" fill="#B0BEC5"/>
<path id="Vector_6" d="M33.5137 93.1223C33.5137 91.09 35.1612 89.4424 37.1936 89.4424H110.115C112.148 89.4424 113.795 91.09 113.795 93.1223V138.051C113.795 140.083 112.148 141.73 110.115 141.73H37.1936C35.1612 141.73 33.5137 140.083 33.5137 138.051V93.1223Z" fill="#FAFAFA"/>
<path id="Vector_7" d="M178.229 120.34C176.803 120.34 175.852 121.29 175.852 122.716V132.223C175.852 133.649 176.803 134.6 178.229 134.6C179.655 134.6 180.605 133.649 180.605 132.223V122.716C180.605 121.29 179.655 120.34 178.229 120.34Z" fill="#90A4AE"/>
<path id="Vector_8" d="M109.303 41.9077C101.427 41.9077 95.0427 48.2916 95.0427 56.1681C95.0427 64.0446 101.427 70.4285 109.303 70.4285C117.18 70.4285 123.564 64.0446 123.564 56.1681C123.564 48.2916 117.18 41.9077 109.303 41.9077ZM166.345 41.9077C158.468 41.9077 152.084 48.2916 152.084 56.1681C152.084 64.0446 158.468 70.4285 166.345 70.4285C174.221 70.4285 180.605 64.0446 180.605 56.1681C180.605 48.2916 174.221 41.9077 166.345 41.9077ZM52.2614 41.9077C44.3849 41.9077 38.001 48.2916 38.001 56.1681C38.001 64.0446 44.3849 70.4285 52.2614 70.4285C60.1379 70.4285 66.5219 64.0446 66.5219 56.1681C66.5219 48.2916 60.1379 41.9077 52.2614 41.9077Z" fill="#EEDFD9"/>
<path id="Vector_9" d="M123.564 18.1401H95.0427V56.1679H123.564V18.1401Z" fill="#FFF5F1"/>
<path id="Vector_10" d="M171.098 18.1401H147.331L152.085 56.1679H180.605L171.098 18.1401Z" fill="#FFF5F1"/>
<path id="Vector_11" d="M47.5079 18.1401H71.2753L66.5218 56.1679H38.001L47.5079 18.1401Z" fill="#FFF5F1"/>
<path id="Vector_12" d="M137.824 41.9077C129.947 41.9077 123.563 48.2916 123.563 56.1681C123.563 64.0446 129.947 70.4285 137.824 70.4285C145.7 70.4285 152.084 64.0446 152.084 56.1681C152.084 48.2916 145.7 41.9077 137.824 41.9077ZM209.126 56.1681C209.126 64.249 202.946 70.4285 194.866 70.4285C186.785 70.4285 180.605 64.249 180.605 56.1681C180.605 48.0872 186.785 41.9077 194.866 41.9077L209.126 56.1681ZM80.7821 41.9077C72.9056 41.9077 66.5217 48.2916 66.5217 56.1681C66.5217 64.0446 72.9056 70.4285 80.7821 70.4285C88.6586 70.4285 95.0426 64.0446 95.0426 56.1681C95.0426 48.2916 88.6586 41.9077 80.7821 41.9077ZM9.47998 56.1681C9.47998 64.249 15.6595 70.4285 23.7404 70.4285C31.8213 70.4285 38.0009 64.249 38.0009 56.1681C38.0009 48.0872 31.8213 41.9077 23.7404 41.9077L9.47998 56.1681Z" fill="#45A049"/>
<path id="Vector_13" d="M147.331 18.1401H123.563V56.1679H152.084L147.331 18.1401ZM196.138 21.5326C195.372 19.492 193.422 18.1401 191.242 18.1401H171.098L180.605 56.1679H209.126L196.138 21.5326ZM71.2752 18.1401H95.0426V56.1679H66.5217L71.2752 18.1401ZM22.4682 21.5326C23.2335 19.492 25.1843 18.1401 27.3637 18.1401H47.5078L38.0009 56.1679H9.47998L22.4682 21.5326Z" fill="#4CAF50"/>
<path id="Vector_14" d="M76.9793 89.4424H70.3245V107.505H76.9793V89.4424Z" fill="#263238"/>
<path id="Vector_15" d="M73.6517 127.47C77.3271 127.47 80.3066 124.491 80.3066 120.815C80.3066 117.14 77.3271 114.161 73.6517 114.161C69.9763 114.161 66.9968 117.14 66.9968 120.815C66.9968 124.491 69.9763 127.47 73.6517 127.47Z" fill="#FFC107"/>
<path id="Vector_16" d="M89.8805 117.164C90.3313 119.146 88.6419 120.815 86.6096 120.815C77.9722 120.815 69.3325 120.815 60.695 120.815C58.6627 120.815 56.9733 119.146 57.4241 117.164C59.1067 109.768 65.7779 104.178 73.6523 104.178C81.5267 104.178 88.198 109.768 89.8805 117.164Z" fill="#FF5634"/>
<path id="Vector_17" d="M97.3428 136.977H49.9611C48.6062 136.977 47.5078 138.076 47.5078 139.431V141.731H99.7961V139.431C99.7961 138.076 98.6977 136.977 97.3428 136.977Z" fill="#263238"/>
</g>
</g>
</g>
</g>
<defs>
<clipPath id="clip0_1_110">
<rect width="218" height="170" fill="white" transform="translate(0.47998 0.140137)"/>
</clipPath>
</defs>
</svg>
