<svg width="79" height="80" viewBox="0 0 79 80" fill="none" xmlns="http://www.w3.org/2000/svg">
<g id="61fdd35beba8182905a8fd1c_icon-1-service-available-delivery-template.svg" clip-path="url(#clip0_1_307)">
<path id="Vector" d="M78.58 1.66895H0.580017V79.6689H78.58V1.66895Z" fill="#F1F1F1"/>
<path id="Vector_2" d="M40.6581 23.96H38.5019V31.507H40.6581V23.96Z" fill="#E13F1F"/>
<path id="Vector_3" d="M47.1269 23.96H44.9706V31.507H47.1269V23.96Z" fill="#E13F1F"/>
<path id="Vector_4" d="M60.0645 23.96H57.9082V31.507H60.0645V23.96Z" fill="#E13F1F"/>
<path id="Vector_5" d="M21.2518 23.96H19.0955V31.507H21.2518V23.96Z" fill="#E13F1F"/>
<path id="Vector_6" d="M27.7206 23.96H25.5644V31.507H27.7206V23.96Z" fill="#E13F1F"/>
<path id="Vector_7" d="M34.1894 23.96H32.0331V31.507H34.1894V23.96Z" fill="#E13F1F"/>
<path id="Vector_8" d="M53.5958 23.96H51.4395V31.507H53.5958V23.96Z" fill="#E13F1F"/>
<path id="Vector_9" d="M62.2208 31.5068H16.9393V35.8193C20.5122 35.8193 23.408 38.7152 23.408 42.2881V51.9913H29.8768V45.5225C29.8768 40.1631 34.2206 35.8193 39.58 35.8193C44.9394 35.8193 49.2832 40.1631 49.2832 45.5225V51.9913H55.752V42.2881C55.752 38.7152 58.6478 35.8193 62.2208 35.8193V31.5068Z" fill="#E13F1F"/>
<path id="Vector_10" d="M58.9864 49.8341C57.1999 49.8341 55.752 48.7559 55.752 48.7559C55.752 48.7559 54.304 49.8341 52.5176 49.8341C50.7311 49.8341 49.2832 48.7559 49.2832 48.7559C49.2832 48.7559 47.8353 49.8341 46.0488 49.8341C44.2623 49.8341 42.8144 48.7559 42.8144 48.7559C42.8144 48.7559 41.3665 49.8341 39.58 49.8341C37.7935 49.8341 36.3456 48.7559 36.3456 48.7559C36.3456 48.7559 34.8977 49.8341 33.1112 49.8341C31.3248 49.8341 29.8768 48.7559 29.8768 48.7559C29.8768 48.7559 28.4289 49.8341 26.6424 49.8341C24.856 49.8341 23.408 48.7559 23.408 48.7559C23.408 48.7559 21.9601 49.8341 20.1736 49.8341C18.3872 49.8341 16.9393 48.7559 16.9393 48.7559V57.381C16.9393 58.5723 17.9042 59.5372 19.0955 59.5372H42.8144H52.5176H60.0645C61.2558 59.5372 62.2208 58.5723 62.2208 57.381V48.7559C62.2208 48.7559 60.7728 49.8341 58.9864 49.8341Z" fill="#2AA4F4"/>
<path id="Vector_11" d="M62.2208 21.8027H16.9393V23.959H62.2208V21.8027Z" fill="#FF5634"/>
</g>
<defs>
<clipPath id="clip0_1_307">
<rect width="78" height="79" fill="white" transform="translate(0.580017 0.719727)"/>
</clipPath>
</defs>
</svg>
