<svg width="79" height="79" viewBox="0 0 79 79" fill="none" xmlns="http://www.w3.org/2000/svg">
<g id="61fdd35b80572eda7e5d0c79_icon-4-service-available-delivery-template.svg" clip-path="url(#clip0_1_354)">
<g id="Clip path group">
<mask id="mask0_1_354" style="mask-type:luminance" maskUnits="userSpaceOnUse" x="0" y="0" width="79" height="79">
<g id="a">
<path id="Vector" d="M78.97 0.719727H0.970032V78.7197H78.97V0.719727Z" fill="white"/>
</g>
</mask>
<g mask="url(#mask0_1_354)">
<g id="Group">
<path id="Vector_2" d="M78.97 0.719727H0.970032V78.7197H78.97V0.719727Z" fill="#F1F1F1"/>
<path id="Vector_3" d="M48.1731 94.1571H31.7669L35.8684 44.9385H44.0715L48.1731 94.1571Z" fill="#929292"/>
<path id="Vector_4" d="M38.3294 94.1571H31.7669L35.8684 44.9385H38.3294V94.1571Z" fill="#CACACA"/>
<path id="Vector_5" d="M40.5169 25.2509C40.3014 25.251 40.088 25.2317 39.8889 25.1943C39.6898 25.1568 39.5089 25.1019 39.3565 25.0326C39.2041 24.9634 39.0833 24.8811 39.0009 24.7906C38.9185 24.7001 38.8761 24.6031 38.8763 24.5052V9.59047C38.8763 9.39269 39.0491 9.203 39.3568 9.06315C39.6645 8.9233 40.0818 8.84473 40.5169 8.84473C40.952 8.84473 41.3693 8.9233 41.677 9.06315C41.9846 9.203 42.1575 9.39269 42.1575 9.59047V24.5052C42.1576 24.6031 42.1153 24.7001 42.0329 24.7906C41.9505 24.8811 41.8296 24.9634 41.6772 25.0326C41.5249 25.1019 41.344 25.1568 41.1449 25.1943C40.9458 25.2317 40.7324 25.251 40.5169 25.2509Z" fill="#1D88FE"/>
<path id="Vector_6" d="M34.3189 21.9697H45.6209C46.4912 21.9697 47.3258 22.3154 47.9411 22.9308C48.5565 23.5461 48.9022 24.3807 48.9022 25.2509V31.8134H31.0376V25.2509C31.0376 24.3807 31.3833 23.5461 31.9987 22.9308C32.614 22.3154 33.4486 21.9697 34.3189 21.9697Z" fill="#8FC3FF"/>
<path id="Vector_7" d="M53.095 31.8135H26.845C25.0328 31.8135 23.5638 33.2825 23.5638 35.0947C23.5638 36.9069 25.0328 38.3759 26.845 38.3759H53.0949C54.9071 38.3759 56.3762 36.9069 56.3762 35.0947C56.3762 33.2825 54.9071 31.8135 53.095 31.8135Z" fill="#1D88FE"/>
<path id="Vector_8" d="M60.7512 38.376H19.1887C17.9806 38.376 17.0012 39.3554 17.0012 40.5635C17.0012 41.7717 17.9806 42.751 19.1887 42.751H60.7512C61.9593 42.751 62.9387 41.7717 62.9387 40.5635C62.9387 39.3554 61.9593 38.376 60.7512 38.376Z" fill="#8FC3FF"/>
<path id="Vector_9" d="M53.095 42.751H26.845C25.0328 42.751 23.5638 44.2201 23.5638 46.0323C23.5638 47.8445 25.0328 49.3135 26.845 49.3135H53.0949C54.9071 49.3135 56.3762 47.8445 56.3762 46.0323C56.3762 44.2201 54.9071 42.751 53.095 42.751Z" fill="#1D88FE"/>
</g>
</g>
</g>
</g>
<defs>
<clipPath id="clip0_1_354">
<rect width="78" height="78" fill="white" transform="translate(0.970032 0.719727)"/>
</clipPath>
</defs>
</svg>
